<svg xmlns="http://www.w3.org/2000/svg" width="216.926" height="250.185" viewBox="0 0 216.926 250.185">
  <g id="Bez_nazwy-2" data-name="Bez nazwy-2" transform="translate(-0.007)">
    <g id="Group_4" data-name="Group 4" transform="translate(19.334 204.786)">
      <path id="Path_12" data-name="Path 12" d="M45.661,415.822q-4.287,0-6.512-2.083a7.692,7.692,0,0,1-2.219-5.894v-8.522a7.859,7.859,0,0,1,2.235-5.973q2.238-2.128,6.527-2.13t6.5,2.13a7.905,7.905,0,0,1,2.2,5.973v8.522a7.684,7.684,0,0,1-2.219,5.894q-2.222,2.089-6.512,2.083Zm0-3.963a3.452,3.452,0,0,0,2.79-1,5.419,5.419,0,0,0,.838-3.434v-7.679a5.748,5.748,0,0,0-.838-3.5,3.343,3.343,0,0,0-2.79-1.068,3.343,3.343,0,0,0-2.79,1.068,5.7,5.7,0,0,0-.838,3.5v7.679a5.419,5.419,0,0,0,.838,3.434A3.452,3.452,0,0,0,45.661,411.86Z" transform="translate(-36.93 -391.22)" fill="#fff"/>
      <path id="Path_13" data-name="Path 13" d="M82.5,405.321V415.79H77.4v-24h5.1v9.574H83.64l6.779-9.574h5.339l-8.223,11.071,8.129,12.929H90.35l-6.632-10.469h-1.23Z" transform="translate(-56.216 -391.492)" fill="#fff"/>
      <path id="Path_14" data-name="Path 14" d="M117.52,415.8v-3.963h6V395.753h-6V391.79h17.1v3.963h-6v16.081h6V415.8h-17.1Z" transform="translate(-75.335 -391.492)" fill="#fff"/>
      <path id="Path_15" data-name="Path 15" d="M157.64,415.8v-24h8.312a8.9,8.9,0,0,1,6.585,2.387,8.575,8.575,0,0,1,2.387,6.344v6.658a8.379,8.379,0,0,1-2.387,6.271,9.044,9.044,0,0,1-6.616,2.34Zm5.1-3.963H165.5a4.088,4.088,0,0,0,3.329-1.2,6.07,6.07,0,0,0,.989-3.868V400.95a6.346,6.346,0,0,0-.989-3.947,4,4,0,0,0-3.329-1.246h-2.759Z" transform="translate(-94.454 -391.496)" fill="#fff"/>
      <path id="Path_16" data-name="Path 16" d="M206.151,415.822q-4.287,0-6.512-2.083a7.692,7.692,0,0,1-2.219-5.894v-8.522a7.859,7.859,0,0,1,2.235-5.973q2.238-2.128,6.527-2.13t6.5,2.13a7.905,7.905,0,0,1,2.2,5.973v8.522a7.684,7.684,0,0,1-2.219,5.894Q210.441,415.827,206.151,415.822Zm0-3.963a3.452,3.452,0,0,0,2.79-1,5.415,5.415,0,0,0,.843-3.434v-7.679a5.709,5.709,0,0,0-.843-3.5,4.179,4.179,0,0,0-5.58,0,5.7,5.7,0,0,0-.838,3.5v7.679a5.419,5.419,0,0,0,.838,3.434A3.452,3.452,0,0,0,206.151,411.86Z" transform="translate(-113.411 -391.22)" fill="#fff"/>
    </g>
    <g id="Group_5" data-name="Group 5" transform="translate(39.325 234.926)">
      <path id="Path_17" data-name="Path 17" d="M80.218,464.143a6.349,6.349,0,0,1-2.931-.623,6.754,6.754,0,0,1-2.167-1.806l.649-.591a6.463,6.463,0,0,0,1.958,1.649,5.337,5.337,0,0,0,2.513.539,3.822,3.822,0,0,0,2.57-.832,3.081,3.081,0,0,0,.12-4.376,7.333,7.333,0,0,0-2.947-1.261,7.813,7.813,0,0,1-3.319-1.481,3.242,3.242,0,0,1-1-2.523,3.4,3.4,0,0,1,1.167-2.659,4.341,4.341,0,0,1,3-1.047,5.042,5.042,0,0,1,2.575.612,7.3,7.3,0,0,1,1.963,1.722l-.628.612a7.089,7.089,0,0,0-1.733-1.576,4.132,4.132,0,0,0-2.178-.539,3.553,3.553,0,0,0-2.382.759,2.468,2.468,0,0,0-.9,1.984,2.556,2.556,0,0,0,.827,2.068,7.559,7.559,0,0,0,2.9,1.214,7.838,7.838,0,0,1,3.355,1.539,3.957,3.957,0,0,1-.2,5.517,4.6,4.6,0,0,1-3.209,1.1Z" transform="translate(-75.12 -448.957)" fill="#fff"/>
      <path id="Path_18" data-name="Path 18" d="M104.592,467.647a3.3,3.3,0,0,1-2.549-1.036,3.908,3.908,0,0,1-.953-2.764v-7.512h.927v7.14a3.951,3.951,0,0,0,.67,2.492,2.366,2.366,0,0,0,1.984.843,4.319,4.319,0,0,0,1.937-.492,6.126,6.126,0,0,0,1.9-1.549V456.33h.927v11.123h-.927V465.6h-.183a4.927,4.927,0,0,1-1.638,1.539,4.266,4.266,0,0,1-2.089.5Z" transform="translate(-87.496 -452.388)" fill="#fff"/>
      <path id="Path_19" data-name="Path 19" d="M130.034,467.485a8.389,8.389,0,0,1-2.6-.408,7.145,7.145,0,0,1-2.3-1.241l.482-.759a6.843,6.843,0,0,0,2.068,1.178,6.919,6.919,0,0,0,2.345.4,3.74,3.74,0,0,0,2.209-.576,1.833,1.833,0,0,0,.8-1.576,1.635,1.635,0,0,0-.722-1.466,8.151,8.151,0,0,0-2.764-.853,7.369,7.369,0,0,1-3.088-1.11,2.37,2.37,0,0,1-.937-1.984,2.846,2.846,0,0,1,.974-2.246,3.753,3.753,0,0,1,2.57-.853,6.3,6.3,0,0,1,2.3.424,8.108,8.108,0,0,1,2.041,1.167l-.445.722a8.5,8.5,0,0,0-1.837-1.068,5.219,5.219,0,0,0-2.057-.419,3.013,3.013,0,0,0-1.926.555,1.832,1.832,0,0,0-.707,1.518,1.789,1.789,0,0,0,.712,1.576,7.265,7.265,0,0,0,2.753.832,7.371,7.371,0,0,1,3.1,1.084,2.351,2.351,0,0,1,.947,1.994,2.729,2.729,0,0,1-1.073,2.246,4.426,4.426,0,0,1-2.837.853Z" transform="translate(-98.957 -452.226)" fill="#fff"/>
      <path id="Path_20" data-name="Path 20" d="M150.67,464.095V449.26h.927v5.564h.183a5.756,5.756,0,0,1,1.539-1.492,3.977,3.977,0,0,1,2.188-.544,3.367,3.367,0,0,1,2.539.995,3.57,3.57,0,0,1,.963,2.607v7.716h-.927v-7.512a3.142,3.142,0,0,0-.707-2.178,2.486,2.486,0,0,0-1.947-.785,4,4,0,0,0-1.994.492,7.069,7.069,0,0,0-1.848,1.638v8.344h-.926Z" transform="translate(-111.118 -449.019)" fill="#fff"/>
      <path id="Path_21" data-name="Path 21" d="M175.48,463.875v-.832h3.706v-9.459H175.48v-.832h4.638v10.291h3.706v.832Zm4.172-13.536a1.351,1.351,0,0,1-.67-.147.568.568,0,0,1-.262-.539v-.131a.6.6,0,0,1,.262-.565,1.283,1.283,0,0,1,.67-.157,1.3,1.3,0,0,1,.67.157.608.608,0,0,1,.262.565v.131a.568.568,0,0,1-.262.539A1.338,1.338,0,0,1,179.652,450.339Z" transform="translate(-122.946 -448.8)" fill="#fff"/>
    </g>
    <g id="Group_6" data-name="Group 6" transform="translate(0.007)">
      <path id="Path_22" data-name="Path 22" d="M119.356,137.454l97.577-97.577-6.664-6.664-95.792,95.792-13.6-23.555,63.6-100.409L156.521,0,95.554,96.237l-2.23-3.863a26.86,26.86,0,0,0-46.525,0l-44.384,76.9a17.8,17.8,0,0,0,15.41,26.691H122.313a17.793,17.793,0,0,0,15.41-26.691Zm-83.486,6.9V190.2H17.827A12.039,12.039,0,0,1,7.4,172.143l44.389-76.89a21.1,21.1,0,0,1,36.548,0l21.922,37.966-7.637,7.637a4.556,4.556,0,0,0-2.926-1.063H40.435a4.562,4.562,0,0,0-4.565,4.565Zm96.865,39.824a11.915,11.915,0,0,1-10.422,6.02H104.27V152.54l10.872-10.872,17.6,30.475a11.911,11.911,0,0,1,0,12.039Z" transform="translate(-0.007)" fill="#fff"/>
      <rect id="Rectangle_5" data-name="Rectangle 5" width="5.758" height="22.953" transform="matrix(0.866, -0.5, 0.5, 0.866, 81.937, 104.658)" fill="#fff"/>
      <rect id="Rectangle_6" data-name="Rectangle 6" width="5.758" height="5.795" transform="translate(95.63 128.485) rotate(-29.97)" fill="#fff"/>
    </g>
  </g>
</svg>
